<?xml version="1.0" encoding="UTF-8" standalone="no"?>
<!-- Created with Inkscape (http://www.inkscape.org/) -->

<svg
   width="16"
   height="16"
   viewBox="0 0 16 16"
   version="1.1"
   id="svg5"
   inkscape:version="1.2.2 (732a01da63, 2022-12-09)"
   sodipodi:docname="icon_anchor.svg"
   xmlns:inkscape="http://www.inkscape.org/namespaces/inkscape"
   xmlns:sodipodi="http://sodipodi.sourceforge.net/DTD/sodipodi-0.dtd"
   xmlns="http://www.w3.org/2000/svg"
   xmlns:svg="http://www.w3.org/2000/svg">
  <sodipodi:namedview
     id="namedview7"
     pagecolor="#000000"
     bordercolor="#000000"
     borderopacity="0.25"
     inkscape:showpageshadow="2"
     inkscape:pageopacity="0"
     inkscape:pagecheckerboard="true"
     inkscape:deskcolor="#d1d1d1"
     inkscape:document-units="px"
     showgrid="true"
     inkscape:zoom="47.721211"
     inkscape:cx="11.263335"
     inkscape:cy="9.1049658"
     inkscape:window-width="1920"
     inkscape:window-height="1018"
     inkscape:window-x="-8"
     inkscape:window-y="-8"
     inkscape:window-maximized="1"
     inkscape:current-layer="layer1">
    <inkscape:grid
       type="xygrid"
       id="grid801"
       empspacing="9"
       originx="511.99999"
       originy="511.99999" />
    <sodipodi:guide
       position="0,4.2333374"
       orientation="0,1935.1181"
       id="guide66427"
       inkscape:locked="false" />
    <sodipodi:guide
       position="512.00001,4.2333374"
       orientation="1935.1181,0"
       id="guide66429"
       inkscape:locked="false" />
    <sodipodi:guide
       position="512.00001,-507.76667"
       orientation="0,-1935.1181"
       id="guide66431"
       inkscape:locked="false" />
    <sodipodi:guide
       position="0,-507.76667"
       orientation="-1935.1181,0"
       id="guide66433"
       inkscape:locked="false" />
  </sodipodi:namedview>
  <defs
     id="defs2">
    <rect
       x="37.932678"
       y="72.07209"
       width="534.85077"
       height="318.63449"
       id="rect75351" />
    <rect
       x="519.67767"
       y="326.22104"
       width="880.03815"
       height="1395.9226"
       id="rect57141" />
    <rect
       x="443.81232"
       y="1441.4418"
       width="1156.9467"
       height="440.01907"
       id="rect7353" />
  </defs>
  <g
     inkscape:label="Layer 1"
     inkscape:groupmode="layer"
     id="layer1">
    <rect
       style="fill:#f9f9f9;fill-opacity:1;stroke:#909090;stroke-width:1.62677;stroke-linejoin:bevel;stroke-opacity:0"
       id="rect967"
       width="1.6376832"
       height="7.949584"
       x="7.385756"
       y="4.9737883" />
    <path
       style="fill:#f9f9f9;fill-opacity:1;stroke:#909090;stroke-width:1.62677;stroke-linejoin:bevel;stroke-opacity:0"
       d="m 8.9669683,12.809808 4.8565757,-1.400642 0.677663,1.022089 -5.3648247,1.779194 H 7.4422282 L 2.2468195,12.431256 c 0.3221378,-0.356883 0.9201986,-1.176173 0.9600212,-1.059945 l 4.1224433,1.514207 z"
       id="path1283"
       sodipodi:nodetypes="ccccccccc" />
    <path
       id="path1433"
       style="fill:#f9f9f9;fill-opacity:1;stroke:#909090;stroke-width:1.62677;stroke-linejoin:bevel;stroke-opacity:0"
       d="M 8.1763634,1.8318041 A 2.5412326,1.7034827 0 0 0 5.6351271,3.5352892 2.5412326,1.7034827 0 0 0 8.1763634,5.2387735 2.5412326,1.7034827 0 0 0 10.717597,3.5352892 2.5412326,1.7034827 0 0 0 8.1763634,1.8318041 Z M 8.1481289,2.3239215 A 1.7223908,1.1735103 0 0 1 9.8705301,3.4974366 1.7223908,1.1735103 0 0 1 8.1481289,4.6709516 1.7223908,1.1735103 0 0 1 6.4257298,3.4974366 1.7223908,1.1735103 0 0 1 8.1481289,2.3239215 Z" />
    <rect
       style="fill:#f9f9f9;fill-opacity:1;stroke:#909090;stroke-width:1.62677;stroke-linejoin:bevel;stroke-opacity:0"
       id="rect1490"
       width="12.423802"
       height="0.94637918"
       x="1.9079876"
       y="5.9958777" />
  </g>
</svg>
