<?xml version="1.0" encoding="UTF-8" standalone="no"?>
<!-- Created with Inkscape (http://www.inkscape.org/) -->

<svg
   width="16"
   height="16"
   viewBox="0 0 16 16"
   version="1.1"
   id="svg5"
   inkscape:version="1.2.2 (732a01da63, 2022-12-09)"
   sodipodi:docname="icon_animated_texture.svg"
   xmlns:inkscape="http://www.inkscape.org/namespaces/inkscape"
   xmlns:sodipodi="http://sodipodi.sourceforge.net/DTD/sodipodi-0.dtd"
   xmlns="http://www.w3.org/2000/svg"
   xmlns:svg="http://www.w3.org/2000/svg">
  <sodipodi:namedview
     id="namedview7"
     pagecolor="#000000"
     bordercolor="#000000"
     borderopacity="0.25"
     inkscape:showpageshadow="2"
     inkscape:pageopacity="0"
     inkscape:pagecheckerboard="true"
     inkscape:deskcolor="#d1d1d1"
     inkscape:document-units="px"
     showgrid="true"
     inkscape:zoom="23.860606"
     inkscape:cx="11.294768"
     inkscape:cy="11.546228"
     inkscape:window-width="1920"
     inkscape:window-height="1018"
     inkscape:window-x="-8"
     inkscape:window-y="-8"
     inkscape:window-maximized="1"
     inkscape:current-layer="layer1">
    <inkscape:grid
       type="xygrid"
       id="grid801"
       originx="0"
       originy="0" />
  </sodipodi:namedview>
  <defs
     id="defs2">
    <rect
       x="443.81232"
       y="1441.4418"
       width="1156.9467"
       height="440.01907"
       id="rect7353" />
  </defs>
  <g
     inkscape:label="Layer 1"
     inkscape:groupmode="layer"
     id="layer1">
    <path
       id="rect32474"
       style="fill:#f9f9f9;fill-opacity:1;stroke:#909090;stroke-width:0.960445;stroke-linejoin:bevel;stroke-opacity:0"
       d="M 1.5028213,1.4506593 V 14.55143 H 14.512787 V 1.4506593 Z m 10.2649487,0.00273 h 1.718607 V 2.722278 H 11.76777 Z m -9.3586336,0.022721 h 1.695681 v 1.2998845 h -1.695681 z m 9.3732486,2.0927542 h 1.718609 V 4.8377596 H 11.782385 Z M 2.4237527,3.591598 H 4.1194339 V 4.891484 H 2.4237527 Z m 9.4463333,2.067269 h 1.718608 V 6.9277675 H 11.870086 Z M 2.5114687,5.681606 H 4.2071498 V 6.9814894 H 2.5114687 Z M 11.840853,7.8763034 H 13.55946 V 9.1452031 H 11.840853 Z M 2.4822352,7.8990462 H 4.1779011 V 9.1989294 H 2.4822352 Z M 11.89932,9.9918005 h 1.718622 V 11.260701 H 11.89932 Z M 2.5407024,10.01455 h 1.6956811 v 1.299884 H 2.5407024 Z m 9.2709176,2.143774 h 1.718607 v 1.2689 H 11.81162 Z m -9.3586337,0.02275 h 1.6956812 v 1.299884 H 2.4529863 Z" />
  </g>
</svg>
