<?xml version="1.0" encoding="UTF-8" standalone="no"?>
<!-- Created with Inkscape (http://www.inkscape.org/) -->

<svg
   width="512mm"
   height="512mm"
   viewBox="0 0 512 512"
   version="1.1"
   id="svg5"
   inkscape:version="1.2.2 (732a01da63, 2022-12-09)"
   sodipodi:docname="icon_audio_stream_random_pitch.svg"
   xmlns:inkscape="http://www.inkscape.org/namespaces/inkscape"
   xmlns:sodipodi="http://sodipodi.sourceforge.net/DTD/sodipodi-0.dtd"
   xmlns="http://www.w3.org/2000/svg"
   xmlns:svg="http://www.w3.org/2000/svg">
  <sodipodi:namedview
     id="namedview7"
     pagecolor="#ffffff"
     bordercolor="#000000"
     borderopacity="0.25"
     inkscape:showpageshadow="2"
     inkscape:pageopacity="0.0"
     inkscape:pagecheckerboard="true"
     inkscape:deskcolor="#d1d1d1"
     inkscape:document-units="mm"
     showgrid="true"
     inkscape:zoom="0.18641098"
     inkscape:cx="182.39269"
     inkscape:cy="1381.3564"
     inkscape:window-width="1920"
     inkscape:window-height="1058"
     inkscape:window-x="1912"
     inkscape:window-y="-8"
     inkscape:window-maximized="1"
     inkscape:current-layer="layer1">
    <inkscape:grid
       type="xygrid"
       id="grid801"
       empspacing="9"
       originx="511.99999"
       originy="511.99999" />
    <sodipodi:guide
       position="0,511.99999"
       orientation="0,1935.1181"
       id="guide66427"
       inkscape:locked="false" />
    <sodipodi:guide
       position="511.99999,511.99999"
       orientation="1935.1181,0"
       id="guide66429"
       inkscape:locked="false" />
    <sodipodi:guide
       position="511.99999,0"
       orientation="0,-1935.1181"
       id="guide66431"
       inkscape:locked="false" />
    <sodipodi:guide
       position="0,0"
       orientation="-1935.1181,0"
       id="guide66433"
       inkscape:locked="false" />
  </sodipodi:namedview>
  <defs
     id="defs2">
    <linearGradient
       id="linearGradient6455"
       inkscape:swatch="solid">
      <stop
         style="stop-color:#505050;stop-opacity:1;"
         offset="0"
         id="stop6453" />
    </linearGradient>
    <rect
       x="37.932678"
       y="72.07209"
       width="534.85077"
       height="318.63449"
       id="rect75351" />
    <rect
       x="519.67767"
       y="326.22104"
       width="880.03815"
       height="1395.9226"
       id="rect57141" />
    <rect
       x="443.81232"
       y="1441.4418"
       width="1156.9467"
       height="440.01907"
       id="rect7353" />
  </defs>
  <g
     inkscape:label="Layer 1"
     inkscape:groupmode="layer"
     id="layer1">
    <path
       id="rect28477"
       style="fill:#505050;fill-opacity:1;stroke:#505050;stroke-width:16;stroke-linecap:round;stroke-linejoin:round;stroke-opacity:1;paint-order:stroke markers fill;stroke-dasharray:none"
       d="M 36.903174 38.322725 L 36.903174 474.0646 L 474.0646 474.0646 L 474.0646 38.322725 L 36.903174 38.322725 z M 396.70964 48.962386 A 69.55397 69.55397 0 0 1 466.26353 118.51628 A 69.55397 69.55397 0 0 1 396.70964 188.07017 A 69.55397 69.55397 0 0 1 327.15574 118.51628 A 69.55397 69.55397 0 0 1 396.70964 48.962386 z M 252.64504 186.05479 A 66.590332 65.880646 0 0 1 319.23529 251.93553 A 66.590332 65.880646 0 0 1 252.64504 317.81626 A 66.590332 65.880646 0 0 1 186.05479 251.93553 A 66.590332 65.880646 0 0 1 252.64504 186.05479 z M 114.96766 320.28898 A 65.775482 67.90451 0 0 1 180.74297 388.19336 A 65.775482 67.90451 0 0 1 114.96766 456.09826 A 65.775482 67.90451 0 0 1 49.192346 388.19336 A 65.775482 67.90451 0 0 1 114.96766 320.28898 z " />
  </g>
</svg>
