<?xml version="1.0" encoding="UTF-8" standalone="no"?>
<!-- Created with Inkscape (http://www.inkscape.org/) -->

<svg
   width="512mm"
   height="512mm"
   viewBox="0 0 512 512"
   version="1.1"
   id="svg5"
   inkscape:version="1.2.2 (732a01da63, 2022-12-09)"
   sodipodi:docname="icon_a_r_v_r_controller.svg"
   xmlns:inkscape="http://www.inkscape.org/namespaces/inkscape"
   xmlns:sodipodi="http://sodipodi.sourceforge.net/DTD/sodipodi-0.dtd"
   xmlns="http://www.w3.org/2000/svg"
   xmlns:svg="http://www.w3.org/2000/svg">
  <sodipodi:namedview
     id="namedview7"
     pagecolor="#ffffff"
     bordercolor="#000000"
     borderopacity="0.25"
     inkscape:showpageshadow="2"
     inkscape:pageopacity="0.0"
     inkscape:pagecheckerboard="true"
     inkscape:deskcolor="#d1d1d1"
     inkscape:document-units="mm"
     showgrid="true"
     inkscape:zoom="0.26362494"
     inkscape:cx="529.16086"
     inkscape:cy="862.96843"
     inkscape:window-width="1920"
     inkscape:window-height="1018"
     inkscape:window-x="-8"
     inkscape:window-y="-8"
     inkscape:window-maximized="1"
     inkscape:current-layer="layer1">
    <inkscape:grid
       type="xygrid"
       id="grid801" />
  </sodipodi:namedview>
  <defs
     id="defs2">
    <rect
       x="443.81233"
       y="1441.4418"
       width="1156.9467"
       height="440.01906"
       id="rect7353" />
  </defs>
  <g
     inkscape:label="Layer 1"
     inkscape:groupmode="layer"
     id="layer1">
    <text
       xml:space="preserve"
       transform="matrix(0.15708089,0,0,0.71799128,110.61019,-667.27277)"
       id="text7351"
       style="font-size:192px;font-family:Aleo;-inkscape-font-specification:Aleo;white-space:pre;shape-inside:url(#rect7353);display:inline;fill:#ff0000;fill-opacity:1;stroke:#ffffff;stroke-width:11.3839;stroke-linejoin:bevel;stroke-opacity:0"><tspan
         x="443.8125"
         y="1610.2414"
         id="tspan309">X                 R</tspan></text>
    <path
       id="rect7547"
       style="fill:#ff0000;fill-opacity:1;stroke:#ffffff;stroke-width:3.01199;stroke-linejoin:bevel;stroke-opacity:0"
       d="M 30.109273 52.189062 L 30.109273 335.21416 L 487.76661 335.21416 L 487.76661 52.189062 L 30.109273 52.189062 z M 118.42895 74.268852 L 196.71254 74.268852 L 196.71254 136.49451 L 263.95598 136.49451 L 263.95598 204.74151 L 196.71254 204.74151 L 196.71254 274.99613 L 118.42895 274.99613 L 118.42895 204.74151 L 54.196175 204.74151 L 54.196175 136.49451 L 118.42895 136.49451 L 118.42895 74.268852 z M 425.03969 87.316117 A 35.629059 40.647236 0 0 1 460.66852 127.96325 A 35.629059 40.647236 0 0 1 425.03969 168.6109 A 35.629059 40.647236 0 0 1 389.41034 127.96325 A 35.629059 40.647236 0 0 1 425.03969 87.316117 z M 344.74898 169.61445 A 34.625423 35.127239 0 0 1 379.37426 204.74151 A 34.625423 35.127239 0 0 1 344.74898 239.86908 A 34.625423 35.127239 0 0 1 310.12319 204.74151 A 34.625423 35.127239 0 0 1 344.74898 169.61445 z " />
  </g>
</svg>
