<?xml version="1.0" encoding="UTF-8" standalone="no"?>
<!-- Created with Inkscape (http://www.inkscape.org/) -->

<svg
   width="512mm"
   height="512mm"
   viewBox="0 0 512 512"
   version="1.1"
   id="svg5"
   inkscape:version="1.2.2 (732a01da63, 2022-12-09)"
   sodipodi:docname="icon_action_copy.svg"
   xmlns:inkscape="http://www.inkscape.org/namespaces/inkscape"
   xmlns:sodipodi="http://sodipodi.sourceforge.net/DTD/sodipodi-0.dtd"
   xmlns="http://www.w3.org/2000/svg"
   xmlns:svg="http://www.w3.org/2000/svg">
  <sodipodi:namedview
     id="namedview7"
     pagecolor="#ffffff"
     bordercolor="#000000"
     borderopacity="0.25"
     inkscape:showpageshadow="2"
     inkscape:pageopacity="0.0"
     inkscape:pagecheckerboard="true"
     inkscape:deskcolor="#d1d1d1"
     inkscape:document-units="mm"
     showgrid="true"
     inkscape:zoom="0.26362494"
     inkscape:cx="885.72802"
     inkscape:cy="859.17515"
     inkscape:window-width="1920"
     inkscape:window-height="1018"
     inkscape:window-x="-8"
     inkscape:window-y="-8"
     inkscape:window-maximized="1"
     inkscape:current-layer="layer1">
    <inkscape:grid
       type="xygrid"
       id="grid801" />
  </sodipodi:namedview>
  <defs
     id="defs2">
    <rect
       x="443.81233"
       y="1441.4418"
       width="1156.9467"
       height="440.01906"
       id="rect7353" />
  </defs>
  <g
     inkscape:label="Layer 1"
     inkscape:groupmode="layer"
     id="layer1">
    <path
       style="fill:#909090;fill-opacity:1;stroke:#909090;stroke-width:35.3121;stroke-linejoin:bevel;stroke-dasharray:none;stroke-opacity:0"
       d="M 74.26902,22.079979 254.9234,242.87977 423.53415,22.079979 371.34511,220.79979 l -104.3781,48.17451 40.14542,118.42898 4.01455,-38.13815 16.05817,-22.07998 37.13451,-4.01455 29.10543,14.05091 c 0,0 23.0836,21.07634 27.09815,37.13451 4.01455,16.05817 7.02546,21.07633 4.01455,27.09815 -3.0109,6.02181 -15.05455,22.07998 -24.08727,28.10179 -9.03271,6.02181 -37.13451,14.05091 -42.15267,15.05452 -5.01817,1.00365 -71.25812,-1.00361 -71.25812,-1.00361 L 269.97792,387.40328 247.89795,281.01792 153.55622,442.60322 100.36354,440.59596 83.301738,421.52689 49.178135,378.37054 c 0,0 14.050896,-32.11632 17.061802,-36.13086 3.010908,-4.01455 15.054532,-26.09454 15.054532,-26.09454 l 26.094521,-12.04362 19.06907,8.0291 c 0,0 12.04363,16.05817 15.05454,21.07634 3.0109,5.01817 13.04726,27.09815 13.04726,27.09815 l 1.00363,9.03271 L 223.8107,265.9634 118.42898,226.82161 Z"
       id="path24092" />
    <ellipse
       style="fill:#ffffff;fill-opacity:1;stroke:#909090;stroke-width:35.3121;stroke-linejoin:bevel;stroke-dasharray:none;stroke-opacity:0"
       id="path24146"
       cx="104.37808"
       cy="367.8324"
       rx="29.105427"
       ry="35.629059" />
    <ellipse
       style="fill:#ffffff;fill-opacity:1;stroke:#909090;stroke-width:35.3121;stroke-linejoin:bevel;stroke-dasharray:none;stroke-opacity:0"
       id="path24772"
       cx="364.82147"
       cy="378.87238"
       rx="34.625423"
       ry="32.618149" />
  </g>
</svg>
