<?xml version="1.0" encoding="UTF-8" standalone="no"?>
<!-- Created with Inkscape (http://www.inkscape.org/) -->

<svg
   width="512mm"
   height="512mm"
   viewBox="0 0 512 512"
   version="1.1"
   id="svg5"
   inkscape:version="1.2.2 (732a01da63, 2022-12-09)"
   sodipodi:docname="icon_action_paste.svg"
   xmlns:inkscape="http://www.inkscape.org/namespaces/inkscape"
   xmlns:sodipodi="http://sodipodi.sourceforge.net/DTD/sodipodi-0.dtd"
   xmlns="http://www.w3.org/2000/svg"
   xmlns:svg="http://www.w3.org/2000/svg">
  <sodipodi:namedview
     id="namedview7"
     pagecolor="#ffffff"
     bordercolor="#000000"
     borderopacity="0.25"
     inkscape:showpageshadow="2"
     inkscape:pageopacity="0.0"
     inkscape:pagecheckerboard="true"
     inkscape:deskcolor="#d1d1d1"
     inkscape:document-units="mm"
     showgrid="true"
     inkscape:zoom="0.26362494"
     inkscape:cx="229.4927"
     inkscape:cy="870.55496"
     inkscape:window-width="1920"
     inkscape:window-height="1018"
     inkscape:window-x="-8"
     inkscape:window-y="-8"
     inkscape:window-maximized="1"
     inkscape:current-layer="layer1">
    <inkscape:grid
       type="xygrid"
       id="grid801" />
  </sodipodi:namedview>
  <defs
     id="defs2">
    <rect
       x="443.81233"
       y="1441.4418"
       width="1156.9467"
       height="440.01906"
       id="rect7353" />
  </defs>
  <g
     inkscape:label="Layer 1"
     inkscape:groupmode="layer"
     id="layer1">
    <path
       id="rect1032"
       style="fill:#505050;fill-opacity:1;stroke:#909090;stroke-width:35.3121;stroke-linejoin:bevel;stroke-opacity:0"
       d="M 32.116386 30.109273 L 32.116386 463.67971 L 475.72342 463.67971 L 475.72342 30.109273 L 268.92105 30.109273 A 28.054796 26.549343 0 0 1 277.458 49.177877 A 28.054796 26.549343 0 0 1 277.2575 52.189062 L 454.64667 52.189062 L 454.64667 444.61059 L 54.196175 444.61059 L 54.196175 52.189062 L 221.54927 52.189062 A 28.054796 26.549343 0 0 1 221.34876 49.177877 A 28.054796 26.549343 0 0 1 229.90586 30.109273 L 32.116386 30.109273 z " />
    <path
       id="rect1298"
       style="fill:#505050;fill-opacity:1;stroke:#909090;stroke-width:26.45;stroke-linejoin:bevel;stroke-opacity:0"
       d="M 153.13949 10.623641 L 153.13949 108.80938 L 353.69624 108.80938 L 353.69624 10.623641 L 153.13949 10.623641 z M 249.90516 22.628593 A 28.054796 26.549343 0 0 1 277.95978 49.177877 A 28.054796 26.549343 0 0 1 249.90516 75.727677 A 28.054796 26.549343 0 0 1 221.85054 49.177877 A 28.054796 26.549343 0 0 1 249.90516 22.628593 z " />
  </g>
</svg>
