<?xml version="1.0" encoding="UTF-8" standalone="no"?>
<!-- Created with Inkscape (http://www.inkscape.org/) -->

<svg
   width="16"
   height="16"
   viewBox="0 0 16 16"
   version="1.1"
   id="svg5"
   inkscape:version="1.2.2 (732a01da63, 2022-12-09)"
   sodipodi:docname="icon_auto_triangle.svg"
   xmlns:inkscape="http://www.inkscape.org/namespaces/inkscape"
   xmlns:sodipodi="http://sodipodi.sourceforge.net/DTD/sodipodi-0.dtd"
   xmlns="http://www.w3.org/2000/svg"
   xmlns:svg="http://www.w3.org/2000/svg">
  <sodipodi:namedview
     id="namedview7"
     pagecolor="#000000"
     bordercolor="#000000"
     borderopacity="0.25"
     inkscape:showpageshadow="2"
     inkscape:pageopacity="0"
     inkscape:pagecheckerboard="true"
     inkscape:deskcolor="#d1d1d1"
     inkscape:document-units="px"
     showgrid="true"
     inkscape:zoom="33.743992"
     inkscape:cx="7.0086551"
     inkscape:cy="10.12032"
     inkscape:window-width="1920"
     inkscape:window-height="1018"
     inkscape:window-x="-8"
     inkscape:window-y="-8"
     inkscape:window-maximized="1"
     inkscape:current-layer="layer1">
    <inkscape:grid
       type="xygrid"
       id="grid801"
       empspacing="9"
       originx="511.99999"
       originy="511.99999" />
    <sodipodi:guide
       position="0,4.2333374"
       orientation="0,1935.1181"
       id="guide66427"
       inkscape:locked="false" />
    <sodipodi:guide
       position="512.00001,4.2333374"
       orientation="1935.1181,0"
       id="guide66429"
       inkscape:locked="false" />
    <sodipodi:guide
       position="512.00001,-507.76667"
       orientation="0,-1935.1181"
       id="guide66431"
       inkscape:locked="false" />
    <sodipodi:guide
       position="0,-507.76667"
       orientation="-1935.1181,0"
       id="guide66433"
       inkscape:locked="false" />
  </sodipodi:namedview>
  <defs
     id="defs2">
    <linearGradient
       id="linearGradient6455"
       inkscape:swatch="solid">
      <stop
         style="stop-color:#505050;stop-opacity:1;"
         offset="0"
         id="stop6453" />
    </linearGradient>
    <rect
       x="37.932678"
       y="72.07209"
       width="534.85077"
       height="318.63449"
       id="rect75351" />
    <rect
       x="519.67767"
       y="326.22104"
       width="880.03815"
       height="1395.9226"
       id="rect57141" />
    <rect
       x="443.81232"
       y="1441.4418"
       width="1156.9467"
       height="440.01907"
       id="rect7353" />
  </defs>
  <g
     inkscape:label="Layer 1"
     inkscape:groupmode="layer"
     id="layer1">
    <path
       id="path37138"
       style="fill:#f9f9f9;stroke:#f9f9f9;stroke-width:0.465781;stroke-linecap:round;stroke-linejoin:round;stroke-opacity:1;paint-order:stroke markers fill"
       d="M 8.2500657,1.2250097 1.3025353,14.919565 14.793657,14.835033 Z m 0.568573,4.5689812 c 0.4072777,0 0.6794109,0.2155717 0.8164053,0.6467289 0.074051,0.346871 0.1906823,0.8671909 0.3498922,1.5609321 0.2258548,0.9336341 0.5017008,2.0018011 0.8275218,3.2045031 0.02593,0.09077 0.120326,0.30472 0.283244,0.641866 0.133281,0.278793 0.199932,0.487898 0.199932,0.627293 0,0.188024 -0.08144,0.345253 -0.24436,0.471683 -0.159209,0.126429 -0.34064,0.186394 -0.544279,0.179911 C 10.214494,13.117208 9.9201436,12.815692 9.6239411,12.222446 9.4277074,11.839916 9.2592406,11.399044 9.1185445,10.899809 8.8445576,10.935459 8.3965466,10.971119 7.7745232,11.00678 7.1895236,11.04243 6.7415261,11.08459 6.4305155,11.133214 6.2601988,11.48981 5.9639906,12.026325 5.5419024,12.742759 5.3789968,12.976167 5.1531365,13.09287 4.8643393,13.09287 4.6607004,13.09287 4.4774272,13.03291 4.3145157,12.912959 4.15161,12.789771 4.0701416,12.634163 4.0701416,12.44614 c 0,-0.165331 0.2702912,-0.726162 0.8108598,-1.682489 -0.051838,-0.100495 -0.074051,-0.194504 -0.066641,-0.282032 0.014783,-0.155606 0.194378,-0.277171 0.5387207,-0.364699 C 5.87884,9.3194404 6.4638454,8.4927833 7.1080844,7.6369527 8.0337173,6.4083172 8.6039007,5.7939909 8.8186463,5.7939909 Z M 8.4354378,8.137797 C 8.1466406,8.572196 7.748606,9.1638272 7.2413616,9.9126798 7.4079825,9.8802613 7.6671571,9.8543286 8.0188972,9.8348711 8.4335802,9.8121759 8.6946046,9.7943478 8.8019765,9.7813762 8.7131224,9.3599435 8.5909441,8.8120816 8.4354378,8.1377906 Z" />
  </g>
</svg>
