<?xml version="1.0" encoding="UTF-8" standalone="no"?>
<!-- Created with Inkscape (http://www.inkscape.org/) -->

<svg
   width="16"
   height="16"
   viewBox="0 0 16 16"
   version="1.1"
   id="svg5"
   inkscape:version="1.2.2 (732a01da63, 2022-12-09)"
   sodipodi:docname="icon_animation.svg"
   xmlns:inkscape="http://www.inkscape.org/namespaces/inkscape"
   xmlns:sodipodi="http://sodipodi.sourceforge.net/DTD/sodipodi-0.dtd"
   xmlns="http://www.w3.org/2000/svg"
   xmlns:svg="http://www.w3.org/2000/svg">
  <sodipodi:namedview
     id="namedview7"
     pagecolor="#000000"
     bordercolor="#000000"
     borderopacity="0.25"
     inkscape:showpageshadow="2"
     inkscape:pageopacity="0"
     inkscape:pagecheckerboard="true"
     inkscape:deskcolor="#d1d1d1"
     inkscape:document-units="px"
     showgrid="true"
     inkscape:zoom="23.860606"
     inkscape:cx="3.5833122"
     inkscape:cy="13.348362"
     inkscape:window-width="1920"
     inkscape:window-height="1018"
     inkscape:window-x="-8"
     inkscape:window-y="-8"
     inkscape:window-maximized="1"
     inkscape:current-layer="layer1">
    <inkscape:grid
       type="xygrid"
       id="grid801"
       originx="0"
       originy="0" />
  </sodipodi:namedview>
  <defs
     id="defs2">
    <rect
       x="443.81232"
       y="1441.4418"
       width="1156.9467"
       height="440.01907"
       id="rect7353" />
  </defs>
  <g
     inkscape:label="Layer 1"
     inkscape:groupmode="layer"
     id="layer1">
    <path
       id="path32756"
       style="fill:#f9f9f9;fill-opacity:1;stroke:#909090;stroke-width:0.983908;stroke-linejoin:bevel;stroke-opacity:0"
       d="M 7.6079332,1.3238088 A 6.1698793,6.2044529 0 0 0 1.4380523,7.5282633 6.1698793,6.2044529 0 0 0 7.6079332,13.732718 6.1698793,6.2044529 0 0 0 13.777815,7.5282633 6.1698793,6.2044529 0 0 0 7.6079332,1.3238088 Z M 7.3985504,1.6319353 A 0.73982712,0.72828797 0 0 1 8.1383769,2.3602236 0.73982712,0.72828797 0 0 1 7.3985504,3.0885118 0.73982712,0.72828797 0 0 1 6.6587245,2.3602236 0.73982712,0.72828797 0 0 1 7.3985504,1.6319353 Z M 10.874342,3.3406059 A 0.73982712,0.72828797 0 0 1 11.614168,4.0688942 0.73982712,0.72828797 0 0 1 10.874342,4.7971825 0.73982712,0.72828797 0 0 1 10.134515,4.0688942 0.73982712,0.72828797 0 0 1 10.874342,3.3406059 Z M 4.1181848,3.3686128 A 0.73982712,0.72828797 0 0 1 4.8580111,4.0969009 0.73982712,0.72828797 0 0 1 4.1181848,4.8251892 0.73982712,0.72828797 0 0 1 3.3783588,4.0969009 0.73982712,0.72828797 0 0 1 4.1181848,3.3686128 Z M 2.9177048,6.64591 A 0.73982712,0.72828797 0 0 1 3.6575311,7.3741981 0.73982712,0.72828797 0 0 1 2.9177048,8.1024864 0.73982712,0.72828797 0 0 1 2.1778788,7.3741981 0.73982712,0.72828797 0 0 1 2.9177048,6.64591 Z M 12.60525,6.7299363 A 0.73982712,0.72828797 0 0 1 13.345076,7.4582246 0.73982712,0.72828797 0 0 1 12.60525,8.1865129 0.73982712,0.72828797 0 0 1 11.865424,7.4582246 0.73982712,0.72828797 0 0 1 12.60525,6.7299363 Z M 4.0344235,9.503045 A 0.73982712,0.72828797 0 0 1 4.7742494,10.231334 0.73982712,0.72828797 0 0 1 4.0344235,10.959622 0.73982712,0.72828797 0 0 1 3.2945971,10.231334 0.73982712,0.72828797 0 0 1 4.0344235,9.503045 Z m 6.9236655,0.336121 a 0.73982712,0.72828797 0 0 1 0.739826,0.728288 0.73982712,0.72828797 0 0 1 -0.739826,0.728288 0.73982712,0.72828797 0 0 1 -0.739827,-0.728288 0.73982712,0.72828797 0 0 1 0.739827,-0.728288 z M 7.4125084,11.46381 A 0.73982712,0.72828797 0 0 1 8.1523348,12.192099 0.73982712,0.72828797 0 0 1 7.4125084,12.920387 0.73982712,0.72828797 0 0 1 6.6726819,12.192099 0.73982712,0.72828797 0 0 1 7.4125084,11.46381 Z" />
    <path
       style="fill:#f9f9f9;fill-opacity:1;stroke:#909090;stroke-width:0.951773;stroke-linejoin:bevel;stroke-opacity:0"
       d="m 13.780099,8.338506 -0.02843,4.710689 0.170563,0.540571 0.625398,0.257414 v 0.797986 l -1.790912,-0.02574 0.142134,-6.2551765 z"
       id="path32758" />
  </g>
</svg>
