<?xml version="1.0" encoding="UTF-8" standalone="no"?>
<!-- Created with Inkscape (http://www.inkscape.org/) -->

<svg
   width="32"
   height="32"
   viewBox="0 0 32 32"
   version="1.1"
   id="svg5"
   sodipodi:docname="icon_canvas_capsule_shape_2d.svg"
   inkscape:version="1.2.2 (732a01da63, 2022-12-09)"
   xmlns:inkscape="http://www.inkscape.org/namespaces/inkscape"
   xmlns:sodipodi="http://sodipodi.sourceforge.net/DTD/sodipodi-0.dtd"
   xmlns="http://www.w3.org/2000/svg"
   xmlns:svg="http://www.w3.org/2000/svg">
  <sodipodi:namedview
     id="namedview7"
     pagecolor="#000000"
     bordercolor="#000000"
     borderopacity="0.25"
     inkscape:showpageshadow="2"
     inkscape:pageopacity="0"
     inkscape:pagecheckerboard="true"
     inkscape:deskcolor="#d1d1d1"
     inkscape:document-units="px"
     showgrid="true"
     inkscape:zoom="11.930303"
     inkscape:cx="12.573025"
     inkscape:cy="29.378969"
     inkscape:window-width="1920"
     inkscape:window-height="1018"
     inkscape:window-x="-8"
     inkscape:window-y="-8"
     inkscape:window-maximized="1"
     inkscape:current-layer="layer1">
    <inkscape:grid
       type="xygrid"
       id="grid256"
       originx="0"
       originy="0" />
  </sodipodi:namedview>
  <defs
     id="defs2" />
  <g
     inkscape:label="Layer 1"
     inkscape:groupmode="layer"
     id="layer1">
    <path
       id="path7875"
       style="fill:#80e5ff;fill-opacity:1;stroke:#80e5ff;stroke-width:1;stroke-linecap:butt;stroke-linejoin:bevel;stroke-dasharray:none;stroke-dashoffset:0;stroke-opacity:0;paint-order:normal"
       d="M 15.355469 1.6953125 A 5.9931421 14.584709 0 0 0 14.570312 1.7226562 A 5.9931421 14.584709 0 0 0 9.0703125 17.408203 A 5.9931421 14.584709 0 0 0 15.513672 30.800781 A 5.9931421 14.584709 0 0 0 21.021484 15.126953 L 19.595703 15.398438 A 4.6520195 13.243587 0 0 1 19.599609 15.457031 L 14.960938 16.511719 L 19.599609 15.484375 A 4.6520195 13.243587 0 0 1 15.326172 29.714844 A 4.6520195 13.243587 0 0 1 10.324219 17.554688 A 4.6520195 13.243587 0 0 1 14.59375 3.3105469 A 4.6520195 13.243587 0 0 1 19.595703 15.376953 L 21.019531 15.099609 A 5.9931421 14.584709 0 0 0 15.355469 1.6953125 z " />
  </g>
</svg>
