<?xml version="1.0" encoding="UTF-8" standalone="no"?>
<!-- Created with Inkscape (http://www.inkscape.org/) -->

<svg
   width="16"
   height="16"
   viewBox="0 0 4.2333333 4.2333333"
   version="1.1"
   id="svg5"
   inkscape:version="1.2.2 (732a01da63, 2022-12-09)"
   sodipodi:docname="icon_audio_stream_random_pitch.svg"
   xmlns:inkscape="http://www.inkscape.org/namespaces/inkscape"
   xmlns:sodipodi="http://sodipodi.sourceforge.net/DTD/sodipodi-0.dtd"
   xmlns:xlink="http://www.w3.org/1999/xlink"
   xmlns="http://www.w3.org/2000/svg"
   xmlns:svg="http://www.w3.org/2000/svg">
  <sodipodi:namedview
     id="namedview7"
     pagecolor="#000000"
     bordercolor="#000000"
     borderopacity="0.25"
     inkscape:showpageshadow="2"
     inkscape:pageopacity="0"
     inkscape:pagecheckerboard="true"
     inkscape:deskcolor="#d1d1d1"
     inkscape:document-units="px"
     showgrid="true"
     inkscape:zoom="33.743992"
     inkscape:cx="12.476295"
     inkscape:cy="8.579305"
     inkscape:window-width="1920"
     inkscape:window-height="1018"
     inkscape:window-x="-8"
     inkscape:window-y="-8"
     inkscape:window-maximized="1"
     inkscape:current-layer="layer1">
    <inkscape:grid
       type="xygrid"
       id="grid801"
       empspacing="9"
       originx="511.99999"
       originy="511.99999" />
    <sodipodi:guide
       position="0,4.2333374"
       orientation="0,1935.1181"
       id="guide66427"
       inkscape:locked="false" />
    <sodipodi:guide
       position="512.00001,4.2333374"
       orientation="1935.1181,0"
       id="guide66429"
       inkscape:locked="false" />
    <sodipodi:guide
       position="512.00001,-507.76667"
       orientation="0,-1935.1181"
       id="guide66431"
       inkscape:locked="false" />
    <sodipodi:guide
       position="0,-507.76667"
       orientation="-1935.1181,0"
       id="guide66433"
       inkscape:locked="false" />
  </sodipodi:namedview>
  <defs
     id="defs2">
    <linearGradient
       inkscape:collect="always"
       id="linearGradient3887">
      <stop
         style="stop-color:#ff8080;stop-opacity:1;"
         offset="0.32692307"
         id="stop3883" />
      <stop
         style="stop-color:#ffe680;stop-opacity:1"
         offset="0.5"
         id="stop3891" />
      <stop
         style="stop-color:#b3ff80;stop-opacity:1"
         offset="0.64316237"
         id="stop3885" />
    </linearGradient>
    <linearGradient
       id="linearGradient6455"
       inkscape:swatch="solid">
      <stop
         style="stop-color:#505050;stop-opacity:1;"
         offset="0"
         id="stop6453" />
    </linearGradient>
    <rect
       x="37.932678"
       y="72.07209"
       width="534.85077"
       height="318.63449"
       id="rect75351" />
    <rect
       x="519.67767"
       y="326.22104"
       width="880.03815"
       height="1395.9226"
       id="rect57141" />
    <rect
       x="443.81232"
       y="1441.4418"
       width="1156.9467"
       height="440.01907"
       id="rect7353" />
    <linearGradient
       inkscape:collect="always"
       xlink:href="#linearGradient3887"
       id="linearGradient3889"
       x1="2.1381013"
       y1="0.35281688"
       x2="2.1444447"
       y2="3.9596317"
       gradientUnits="userSpaceOnUse" />
  </defs>
  <g
     inkscape:label="Layer 1"
     inkscape:groupmode="layer"
     id="layer1">
    <path
       id="rect28477"
       style="fill:url(#linearGradient3889);fill-opacity:1;stroke:#ff8080;stroke-width:0.131076;stroke-linecap:round;stroke-linejoin:round;stroke-dasharray:none;stroke-opacity:0;paint-order:stroke markers fill"
       d="M 0.37670915,0.34523468 V 3.9358504 H 3.9372006 V 0.34523468 Z M 3.3071777,0.43290777 A 0.56648708,0.5731411 0 0 1 3.8736642,1.0060485 0.56648708,0.5731411 0 0 1 3.3071777,1.5791889 0.56648708,0.5731411 0 0 1 2.7406912,1.0060485 0.56648708,0.5731411 0 0 1 3.3071777,0.43290777 Z M 2.1338337,1.5625817 A 0.54234955,0.54287205 0 0 1 2.6761826,2.1054545 0.54234955,0.54287205 0 0 1 2.1338337,2.6483272 0.54234955,0.54287205 0 0 1 1.5914848,2.1054545 0.54234955,0.54287205 0 0 1 2.1338337,1.5625817 Z M 1.0125106,2.6687031 A 0.53571293,0.55954915 0 0 1 1.5482223,3.2282511 0.53571293,0.55954915 0 0 1 1.0125106,3.7878034 0.53571293,0.55954915 0 0 1 0.47679914,3.2282511 0.53571293,0.55954915 0 0 1 1.0125106,2.6687031 Z" />
  </g>
</svg>
