<?xml version="1.0" encoding="UTF-8" standalone="no"?>
<!-- Created with Inkscape (http://www.inkscape.org/) -->

<svg
   width="512mm"
   height="512mm"
   viewBox="0 0 512 512"
   version="1.1"
   id="svg5"
   inkscape:version="1.2.2 (732a01da63, 2022-12-09)"
   sodipodi:docname="icon_anchor.svg"
   xmlns:inkscape="http://www.inkscape.org/namespaces/inkscape"
   xmlns:sodipodi="http://sodipodi.sourceforge.net/DTD/sodipodi-0.dtd"
   xmlns="http://www.w3.org/2000/svg"
   xmlns:svg="http://www.w3.org/2000/svg">
  <sodipodi:namedview
     id="namedview7"
     pagecolor="#ffffff"
     bordercolor="#000000"
     borderopacity="0.25"
     inkscape:showpageshadow="2"
     inkscape:pageopacity="0.0"
     inkscape:pagecheckerboard="true"
     inkscape:deskcolor="#d1d1d1"
     inkscape:document-units="mm"
     showgrid="true"
     inkscape:zoom="0.26362494"
     inkscape:cx="-519.67769"
     inkscape:cy="893.31457"
     inkscape:window-width="1920"
     inkscape:window-height="1058"
     inkscape:window-x="1912"
     inkscape:window-y="-8"
     inkscape:window-maximized="1"
     inkscape:current-layer="layer1">
    <inkscape:grid
       type="xygrid"
       id="grid801"
       empspacing="9"
       originx="511.99999"
       originy="511.99999" />
    <sodipodi:guide
       position="0,511.99999"
       orientation="0,1935.1181"
       id="guide66427"
       inkscape:locked="false" />
    <sodipodi:guide
       position="511.99999,511.99999"
       orientation="1935.1181,0"
       id="guide66429"
       inkscape:locked="false" />
    <sodipodi:guide
       position="511.99999,0"
       orientation="0,-1935.1181"
       id="guide66431"
       inkscape:locked="false" />
    <sodipodi:guide
       position="0,0"
       orientation="-1935.1181,0"
       id="guide66433"
       inkscape:locked="false" />
  </sodipodi:namedview>
  <defs
     id="defs2">
    <rect
       x="37.932678"
       y="72.072088"
       width="534.85076"
       height="318.6345"
       id="rect75351" />
    <rect
       x="519.67769"
       y="326.22103"
       width="880.03813"
       height="1395.9226"
       id="rect57141" />
    <rect
       x="443.81233"
       y="1441.4418"
       width="1156.9467"
       height="440.01906"
       id="rect7353" />
  </defs>
  <g
     inkscape:label="Layer 1"
     inkscape:groupmode="layer"
     id="layer1">
    <rect
       style="fill:#505050;fill-opacity:1;stroke:#909090;stroke-width:42.83;stroke-linejoin:bevel;stroke-opacity:0"
       id="rect967"
       width="36.79705"
       height="245.2477"
       x="226.20314"
       y="156.89725" />
    <path
       style="fill:#505050;fill-opacity:1;stroke:#909090;stroke-width:42.83;stroke-linejoin:bevel;stroke-opacity:0"
       d="m 261.73134,398.64146 109.12229,-43.21034 15.22635,31.53184 -120.54204,54.88882 h -38.06592 l -116.73546,-54.8888 c 7.2381,-11.01002 20.67591,-36.28544 21.57068,-32.69972 l 92.62704,46.71386 z"
       id="path1283"
       sodipodi:nodetypes="ccccccccc" />
    <path
       id="path1433"
       style="fill:#505050;fill-opacity:1;stroke:#909090;stroke-width:42.83;stroke-linejoin:bevel;stroke-opacity:0"
       d="M 243.96727,59.965834 A 57.098872,52.553093 0 0 0 186.86833,112.519 57.098872,52.553093 0 0 0 243.96727,165.07215 57.098872,52.553093 0 0 0 301.06621,112.519 57.098872,52.553093 0 0 0 243.96727,59.965834 Z m -0.63437,15.182011 a 38.700344,36.203239 0 0 1 38.70056,36.203395 38.700344,36.203239 0 0 1 -38.70056,36.20338 38.700344,36.203239 0 0 1 -38.70056,-36.20338 38.700344,36.203239 0 0 1 38.70056,-36.203395 z" />
    <rect
       style="fill:#505050;fill-opacity:1;stroke:#909090;stroke-width:42.83;stroke-linejoin:bevel;stroke-opacity:0"
       id="rect1490"
       width="279.15002"
       height="29.196159"
       x="103.12337"
       y="188.42909" />
  </g>
</svg>
