<?xml version="1.0" encoding="UTF-8" standalone="no"?>
<!-- Created with Inkscape (http://www.inkscape.org/) -->

<svg
   width="16"
   height="16"
   viewBox="0 0 16 16"
   version="1.1"
   id="svg5"
   inkscape:version="1.2.2 (732a01da63, 2022-12-09)"
   sodipodi:docname="icon_animation_tree_player.svg"
   xmlns:inkscape="http://www.inkscape.org/namespaces/inkscape"
   xmlns:sodipodi="http://sodipodi.sourceforge.net/DTD/sodipodi-0.dtd"
   xmlns="http://www.w3.org/2000/svg"
   xmlns:svg="http://www.w3.org/2000/svg">
  <sodipodi:namedview
     id="namedview7"
     pagecolor="#000000"
     bordercolor="#000000"
     borderopacity="0.25"
     inkscape:showpageshadow="2"
     inkscape:pageopacity="0"
     inkscape:pagecheckerboard="true"
     inkscape:deskcolor="#d1d1d1"
     inkscape:document-units="px"
     showgrid="true"
     inkscape:zoom="23.860606"
     inkscape:cx="0.81724664"
     inkscape:cy="6.6008382"
     inkscape:window-width="1920"
     inkscape:window-height="1018"
     inkscape:window-x="-8"
     inkscape:window-y="-8"
     inkscape:window-maximized="1"
     inkscape:current-layer="layer1">
    <inkscape:grid
       type="xygrid"
       id="grid801"
       originx="0"
       originy="0" />
  </sodipodi:namedview>
  <defs
     id="defs2">
    <rect
       x="519.67767"
       y="326.22104"
       width="880.03815"
       height="1395.9226"
       id="rect57141" />
    <rect
       x="443.81232"
       y="1441.4418"
       width="1156.9467"
       height="440.01907"
       id="rect7353" />
  </defs>
  <g
     inkscape:label="Layer 1"
     inkscape:groupmode="layer"
     id="layer1">
    <path
       id="rect32474"
       style="fill:#e580ff;fill-opacity:1;stroke:#909090;stroke-width:0.960389;stroke-linejoin:bevel;stroke-opacity:0"
       d="M 1.3451705,1.5239265 V 14.507792 H 14.470757 V 1.5239265 Z m 10.3545415,0.00521 h 1.733134 V 2.8010844 H 11.699712 Z M 2.2619704,1.5519187 H 3.9719851 V 2.8549298 H 2.2619704 Z m 9.4524806,2.0977874 h 1.733136 V 4.9216564 H 11.714451 Z M 2.2767108,3.6725041 H 3.9867256 V 4.9755136 H 2.2767108 Z M 11.802894,5.7447427 H 13.53603 V 7.0166929 H 11.802894 Z M 2.3651679,5.7675404 H 4.0751826 V 7.0705492 H 2.3651679 Z m 4.2988018,0.3299421 c 0.0068,1.784e-4 0.013693,5.127e-4 0.02066,0.00102 0.057385,0.00329 0.1877307,0.017266 0.391036,0.041926 0.162316,0.018085 0.2934819,0.027127 0.3934957,0.027127 0.1000126,0 0.249212,-0.00165 0.4475984,-0.00494 0.2000277,-0.00329 0.3500448,-0.00494 0.4500585,-0.00494 0.1246057,0 0.311525,0.00904 0.5607399,0.027127 0.2492135,0.016441 0.4361326,0.024666 0.5607392,0.024666 0.098375,0 0.180343,0.032059 0.2459261,0.096177 0.067227,0.064118 0.1008431,0.143028 0.1008431,0.2367386 0,0.09371 -0.033626,0.1734498 -0.1008431,0.2392115 -0.065587,0.064119 -0.1475519,0.096177 -0.2459261,0.096177 -0.1278856,0 -0.3271004,-0.00904 -0.5976284,-0.027127 -0.2606904,-0.018083 -0.4599047,-0.026309 -0.5976283,-0.024666 0.00655,0.1874215 0.028689,0.5211737 0.066399,1.0012325 0.034431,0.4241614 0.05166,0.7595466 0.05166,1.0061509 0,0.055891 0.00572,0.1389279 0.017214,0.2490796 0.011477,0.1101491 0.017216,0.193168 0.017216,0.2490651 0,0.1233028 -0.026247,0.2342724 -0.078711,0.3329148 -0.067221,0.1265896 -0.1631254,0.1898929 -0.2877328,0.1898929 -0.090175,0 -0.1697004,-0.028763 -0.2385623,-0.08631 -0.077057,-0.06411 -0.1155831,-0.1446625 -0.1155831,-0.2416614 0,-0.023022 0.0041,-0.057551 0.012295,-0.1035821 0.00819,-0.047678 0.012295,-0.083841 0.012295,-0.108504 0,-0.07562 -0.00572,-0.1898845 -0.017217,-0.3427814 -0.00984,-0.1528935 -0.014755,-0.267984 -0.014755,-0.345254 0,-0.2203013 -0.017228,-0.5186908 -0.05166,-0.895176 C 7.6265528,7.29867 7.603601,7.0002658 7.5970436,6.8358623 H 7.4691622 c -0.365623,0 -0.6558387,-0.026308 -0.8706208,-0.078917 -0.181992,-0.04439 -0.2729769,-0.1520699 -0.2729769,-0.3230494 0,-0.083846 0.029509,-0.1594797 0.088533,-0.2268857 0.064558,-0.075522 0.1478474,-0.1120333 0.2498722,-0.1095277 z m 5.1094433,1.8700321 h 1.733134 V 9.2394648 H 11.773413 Z M 2.3356874,7.9903123 H 4.0456867 V 9.2933222 H 2.3356874 Z m 9.4966876,2.0977857 h 1.733148 v 1.27195 h -1.733148 z m -9.4377263,0.02279 H 4.1046633 V 11.4139 H 2.3946487 Z m 9.3492833,2.148883 h 1.733135 v 1.27195 h -1.733135 z m -9.4377406,0.02279 H 4.016206 V 13.58557 H 2.3061914 Z" />
  </g>
</svg>
