<?xml version="1.0" encoding="UTF-8" standalone="no"?>
<!-- Created with Inkscape (http://www.inkscape.org/) -->

<svg
   width="512mm"
   height="512mm"
   viewBox="0 0 512 512"
   version="1.1"
   id="svg5"
   inkscape:version="1.2.2 (732a01da63, 2022-12-09)"
   sodipodi:docname="icon_animated_texture.svg"
   xmlns:inkscape="http://www.inkscape.org/namespaces/inkscape"
   xmlns:sodipodi="http://sodipodi.sourceforge.net/DTD/sodipodi-0.dtd"
   xmlns="http://www.w3.org/2000/svg"
   xmlns:svg="http://www.w3.org/2000/svg">
  <sodipodi:namedview
     id="namedview7"
     pagecolor="#ffffff"
     bordercolor="#000000"
     borderopacity="0.25"
     inkscape:showpageshadow="2"
     inkscape:pageopacity="0.0"
     inkscape:pagecheckerboard="true"
     inkscape:deskcolor="#d1d1d1"
     inkscape:document-units="mm"
     showgrid="true"
     inkscape:zoom="0.26362494"
     inkscape:cx="221.90617"
     inkscape:cy="878.1415"
     inkscape:window-width="1920"
     inkscape:window-height="1058"
     inkscape:window-x="1912"
     inkscape:window-y="-8"
     inkscape:window-maximized="1"
     inkscape:current-layer="layer1">
    <inkscape:grid
       type="xygrid"
       id="grid801" />
  </sodipodi:namedview>
  <defs
     id="defs2">
    <rect
       x="443.81233"
       y="1441.4418"
       width="1156.9467"
       height="440.01906"
       id="rect7353" />
  </defs>
  <g
     inkscape:label="Layer 1"
     inkscape:groupmode="layer"
     id="layer1">
    <path
       id="rect32474"
       style="fill:#505050;fill-opacity:1;stroke:#909090;stroke-width:35.3121;stroke-linejoin:bevel;stroke-opacity:0"
       d="M 29.1052 2.0071126 L 29.1052 517.87588 L 475.72342 517.87588 L 475.72342 2.0071126 L 29.1052 2.0071126 z M 381.48989 2.1156331 L 440.48784 2.1156331 L 440.48784 52.081059 L 381.48989 52.081059 L 381.48989 2.1156331 z M 60.21803 3.0106689 L 118.42895 3.0106689 L 118.42895 54.196175 L 60.21803 54.196175 L 60.21803 3.0106689 z M 381.99167 85.417008 L 440.98962 85.417008 L 440.98962 135.38243 L 381.99167 135.38243 L 381.99167 85.417008 z M 60.719808 86.312561 L 118.93073 86.312561 L 118.93073 137.49807 L 60.719808 137.49807 L 60.719808 86.312561 z M 385.00234 167.71534 L 444.00029 167.71534 L 444.00029 217.68077 L 385.00234 217.68077 L 385.00234 167.71534 z M 63.730994 168.6109 L 121.94191 168.6109 L 121.94191 219.7964 L 63.730994 219.7964 L 63.730994 168.6109 z M 383.99878 255.03146 L 442.99673 255.03146 L 442.99673 304.99689 L 383.99878 304.99689 L 383.99878 255.03146 z M 62.727437 255.92701 L 120.93784 255.92701 L 120.93784 307.11252 L 62.727437 307.11252 L 62.727437 255.92701 z M 386.0059 338.33335 L 445.00436 338.33335 L 445.00436 388.29878 L 386.0059 388.29878 L 386.0059 338.33335 z M 64.73455 339.22891 L 122.94547 339.22891 L 122.94547 390.41441 L 64.73455 390.41441 L 64.73455 339.22891 z M 382.99523 423.64236 L 441.99318 423.64236 L 441.99318 473.60778 L 382.99523 473.60778 L 382.99523 423.64236 z M 61.723364 424.53791 L 119.93428 424.53791 L 119.93428 475.72342 L 61.723364 475.72342 L 61.723364 424.53791 z " />
  </g>
</svg>
