<?xml version="1.0" encoding="UTF-8" standalone="no"?>
<!-- Created with Inkscape (http://www.inkscape.org/) -->

<svg
   width="512mm"
   height="512mm"
   viewBox="0 0 512 512"
   version="1.1"
   id="svg5"
   inkscape:version="1.2.2 (732a01da63, 2022-12-09)"
   sodipodi:docname="icon_animation_tree.svg"
   xmlns:inkscape="http://www.inkscape.org/namespaces/inkscape"
   xmlns:sodipodi="http://sodipodi.sourceforge.net/DTD/sodipodi-0.dtd"
   xmlns="http://www.w3.org/2000/svg"
   xmlns:svg="http://www.w3.org/2000/svg">
  <sodipodi:namedview
     id="namedview7"
     pagecolor="#ffffff"
     bordercolor="#000000"
     borderopacity="0.25"
     inkscape:showpageshadow="2"
     inkscape:pageopacity="0.0"
     inkscape:pagecheckerboard="true"
     inkscape:deskcolor="#d1d1d1"
     inkscape:document-units="mm"
     showgrid="true"
     inkscape:zoom="0.26362494"
     inkscape:cx="-438.12243"
     inkscape:cy="897.10784"
     inkscape:window-width="1920"
     inkscape:window-height="1058"
     inkscape:window-x="1912"
     inkscape:window-y="-8"
     inkscape:window-maximized="1"
     inkscape:current-layer="layer1">
    <inkscape:grid
       type="xygrid"
       id="grid801" />
  </sodipodi:namedview>
  <defs
     id="defs2">
    <rect
       x="519.67769"
       y="326.22103"
       width="880.03813"
       height="1395.9226"
       id="rect57141" />
    <rect
       x="443.81233"
       y="1441.4418"
       width="1156.9467"
       height="440.01906"
       id="rect7353" />
  </defs>
  <g
     inkscape:label="Layer 1"
     inkscape:groupmode="layer"
     id="layer1">
    <path
       id="rect32474"
       style="fill:#9500d7;fill-opacity:1;stroke:#909090;stroke-width:35.1196;stroke-linejoin:bevel;stroke-opacity:0"
       d="M 29.009082 1.9109945 L 29.009082 511.95015 L 475.81954 511.95015 L 475.81954 1.9109945 L 29.009082 1.9109945 z M 381.48989 2.1156331 L 440.48784 2.1156331 L 440.48784 52.081059 L 381.48989 52.081059 L 381.48989 2.1156331 z M 60.21803 3.0106689 L 118.42895 3.0106689 L 118.42895 54.196175 L 60.21803 54.196175 L 60.21803 3.0106689 z M 381.99167 85.417008 L 440.98962 85.417008 L 440.98962 135.38243 L 381.99167 135.38243 L 381.99167 85.417008 z M 60.719808 86.312561 L 118.93073 86.312561 L 118.93073 137.49807 L 60.719808 137.49807 L 60.719808 86.312561 z M 385.00234 167.71534 L 444.00029 167.71534 L 444.00029 217.68077 L 385.00234 217.68077 L 385.00234 167.71534 z M 63.730994 168.6109 L 121.94191 168.6109 L 121.94191 219.7964 L 63.730994 219.7964 L 63.730994 168.6109 z M 210.06728 181.57186 C 210.29882 181.57842 210.53339 181.59199 210.7706 181.61217 C 212.72405 181.74133 217.16117 182.29036 224.08193 183.2591 C 229.60736 183.9695 234.07239 184.32467 237.47698 184.32467 C 240.88152 184.32467 245.96046 184.26004 252.71377 184.13088 C 259.52294 184.00172 264.6297 183.93709 268.03429 183.93709 C 272.27602 183.93709 278.63897 184.29226 287.12253 185.00266 C 295.60604 185.64848 301.96899 185.97159 306.21077 185.97159 C 309.5595 185.97159 312.34983 187.23095 314.58235 189.74966 C 316.87068 192.26836 318.01521 195.36816 318.01521 199.04935 C 318.01521 202.73054 316.87068 205.8629 314.58235 208.44619 C 312.34983 210.9649 309.5595 212.22426 306.21077 212.22426 C 301.85736 212.22426 295.07587 211.86909 285.86679 211.15869 C 276.99258 210.44828 270.21109 210.12517 265.52281 210.18975 C 265.74606 217.55213 266.49944 230.66276 267.78314 249.52069 C 268.95521 266.18282 269.54169 279.3576 269.54169 289.04489 C 269.54169 291.24068 269.73701 294.5023 270.1277 298.82931 C 270.51839 303.15627 270.71371 306.41745 270.71371 308.6132 C 270.71371 313.45687 269.82026 317.81603 268.03429 321.69096 C 265.74596 326.66375 262.48131 329.15045 258.23953 329.15045 C 255.16987 329.15045 252.46272 328.02034 250.11858 325.75996 C 247.49542 323.24125 246.18394 320.07683 246.18394 316.26648 C 246.18394 315.36233 246.32345 314.00578 246.60252 312.19748 C 246.88158 310.3246 247.0211 308.90394 247.0211 307.93521 C 247.0211 304.96443 246.82578 300.47603 246.43509 294.46988 C 246.10021 288.46377 245.93279 283.94277 245.93279 280.9074 C 245.93279 272.25342 245.34631 260.53191 244.17424 245.74262 C 242.83473 228.75758 242.05345 217.03551 241.8302 210.57733 L 237.47698 210.57733 C 225.03075 210.57733 215.15147 209.54389 207.84003 207.47726 C 201.6448 205.73354 198.54757 201.50359 198.54757 194.78708 C 198.54757 191.49338 199.55208 188.52231 201.56134 185.87444 C 203.75897 182.90774 206.59424 181.47348 210.06728 181.57186 z M 383.99878 255.03146 L 442.99673 255.03146 L 442.99673 304.99689 L 383.99878 304.99689 L 383.99878 255.03146 z M 62.727437 255.92701 L 120.93784 255.92701 L 120.93784 307.11252 L 62.727437 307.11252 L 62.727437 255.92701 z M 386.0059 338.33335 L 445.00436 338.33335 L 445.00436 388.29878 L 386.0059 388.29878 L 386.0059 338.33335 z M 64.73455 339.22891 L 122.94547 339.22891 L 122.94547 390.41441 L 64.73455 390.41441 L 64.73455 339.22891 z M 382.99523 423.64236 L 441.99318 423.64236 L 441.99318 473.60778 L 382.99523 473.60778 L 382.99523 423.64236 z M 61.723364 424.53791 L 119.93428 424.53791 L 119.93428 475.72342 L 61.723364 475.72342 L 61.723364 424.53791 z " />
  </g>
</svg>
