<?xml version="1.0" encoding="UTF-8" standalone="no"?>
<svg
   id="svg2"
   version="1.1"
   inkscape:version="1.2.2 (732a01da63, 2022-12-09)"
   xml:space="preserve"
   width="1024"
   height="414"
   viewBox="0 0 959.99998 388.125"
   sodipodi:docname="logo.svg"
   inkscape:export-filename="/home/akien/Projects/godot/godot.git/logo.png"
   inkscape:export-xdpi="48"
   inkscape:export-ydpi="48"
   xmlns:inkscape="http://www.inkscape.org/namespaces/inkscape"
   xmlns:sodipodi="http://sodipodi.sourceforge.net/DTD/sodipodi-0.dtd"
   xmlns="http://www.w3.org/2000/svg"
   xmlns:svg="http://www.w3.org/2000/svg"
   xmlns:rdf="http://www.w3.org/1999/02/22-rdf-syntax-ns#"
   xmlns:cc="http://creativecommons.org/ns#"
   xmlns:dc="http://purl.org/dc/elements/1.1/"><metadata
     id="metadata8"><rdf:RDF><cc:Work
         rdf:about=""><dc:format>image/svg+xml</dc:format><dc:type
           rdf:resource="http://purl.org/dc/dcmitype/StillImage" /><dc:title /></cc:Work></rdf:RDF></metadata><defs
     id="defs6"><clipPath
       clipPathUnits="userSpaceOnUse"
       id="clipPath16"><path
         d="M 0,595.276 H 841.89 V 0 H 0 Z"
         id="path18"
         inkscape:connector-curvature="0" /></clipPath></defs><sodipodi:namedview
     pagecolor="#ffffff"
     bordercolor="#666666"
     borderopacity="1"
     objecttolerance="10"
     gridtolerance="10"
     guidetolerance="10"
     inkscape:pageopacity="0"
     inkscape:pageshadow="2"
     inkscape:window-width="1920"
     inkscape:window-height="1018"
     id="namedview4"
     showgrid="false"
     inkscape:zoom="1.2041016"
     inkscape:cx="512.41523"
     inkscape:cy="208.03892"
     inkscape:window-x="-8"
     inkscape:window-y="-8"
     inkscape:window-maximized="1"
     inkscape:current-layer="g14"
     fit-margin-top="48"
     fit-margin-left="48"
     fit-margin-right="48"
     fit-margin-bottom="48"
     inkscape:document-rotation="0"
     inkscape:showpageshadow="2"
     inkscape:pagecheckerboard="0"
     inkscape:deskcolor="#d1d1d1" /><g
     id="g10"
     inkscape:groupmode="layer"
     inkscape:label="godot_engine_logo_2017_curves-01"
     transform="matrix(1.25,0,0,-1.25,-94.249997,597.49874)"><g
       id="g12"><g
         id="g14"
         clip-path="url(#clipPath16)"><g
           id="g78"
           transform="matrix(1.1310535,0,0,1.1310535,348.13109,279.2668)"
           style="stroke-width:0.88413143"><path
             d="m 0,0 c 0,0 -0.325,1.994 -0.515,1.976 l -36.182,-3.491 c -2.879,-0.278 -5.115,-2.574 -5.317,-5.459 l -0.994,-14.247 -27.992,-1.997 -1.904,12.912 c -0.424,2.872 -2.932,5.037 -5.835,5.037 h -38.188 c -2.902,0 -5.41,-2.165 -5.834,-5.037 l -1.905,-12.912 -27.992,1.997 -0.994,14.247 c -0.202,2.886 -2.438,5.182 -5.317,5.46 l -36.2,3.49 c -0.187,0.018 -0.324,-1.978 -0.511,-1.978 l -0.049,-7.83 30.658,-4.944 1.004,-14.374 c 0.203,-2.91 2.551,-5.263 5.463,-5.472 l 38.551,-2.75 c 0.146,-0.01 0.29,-0.016 0.434,-0.016 2.897,0 5.401,2.166 5.825,5.038 l 1.959,13.286 h 28.005 l 1.959,-13.286 c 0.423,-2.871 2.93,-5.037 5.831,-5.037 0.142,0 0.284,0.005 0.423,0.015 l 38.556,2.75 c 2.911,0.209 5.26,2.562 5.463,5.472 l 1.003,14.374 30.645,4.966 z"
             style="fill:#ffffff;fill-opacity:1;fill-rule:nonzero;stroke:none;stroke-width:0.88413143"
             id="path80"
             inkscape:connector-curvature="0" /></g><g
           id="g12853"
           transform="matrix(0.54156821,0,0,-0.47615508,93.840881,445.24295)"><rect
             style="fill:#ffff00;fill-opacity:1;stroke:#ffffff;stroke-width:19.9624;stroke-linejoin:bevel;stroke-dasharray:none;stroke-opacity:0"
             id="rect8271"
             width="513.89899"
             height="511.89169"
             x="-0.018817946"
             y="0.9848175" /><rect
             style="fill:#000000;fill-opacity:1;stroke:#ffffff;stroke-width:20;stroke-linejoin:bevel;stroke-dasharray:none;stroke-opacity:0"
             id="rect8273"
             width="460.66864"
             height="193.70164"
             x="27.098156"
             y="296.07245" /><path
             style="fill:#aa0000;fill-opacity:1;stroke:#ffffff;stroke-width:21.4657;stroke-linejoin:bevel;stroke-dasharray:none;stroke-opacity:0"
             d="M 32.201503,23.738486 31.009561,193.1235 H 245.55899 Z"
             id="path8400" /><path
             style="fill:#aa0000;fill-opacity:1;stroke:#ffffff;stroke-width:22.8684;stroke-linejoin:bevel;stroke-dasharray:none;stroke-opacity:0"
             d="M 479.05249,22.322257 V 191.52449 l -210.28537,1.97897 z"
             id="path8402" /><path
             style="fill:#ffffff;fill-opacity:1;stroke:#ffffff;stroke-width:20;stroke-linejoin:bevel;stroke-dasharray:none;stroke-opacity:0"
             d="m 27.098157,296.07245 55.199946,72.26175 42.152687,-65.2363 58.21085,62.2254 48.1745,-57.20723 48.1745,53.19268 53.19268,-51.18542 48.17451,52.18906 41.14903,-50.18177 32.11634,50.18177 32.11635,-68.24721 z"
             id="path8404" /><path
             style="fill:#ffffff;fill-opacity:1;stroke:#ffffff;stroke-width:20;stroke-linejoin:bevel;stroke-dasharray:none;stroke-opacity:0"
             d="m 28.101791,489.77409 56.203582,-65.2363 54.196317,44.15996 43.15633,-40.14541 82.2981,38.13812 43.15633,-45.16358 65.2363,43.15632 48.17449,-72.26175 67.24359,97.35264 z"
             id="path8460" /><path
             style="fill:#ff0000;fill-opacity:1;stroke:#ffffff;stroke-width:20;stroke-linejoin:bevel;stroke-dasharray:none;stroke-opacity:0"
             d="M 56.203585,182.66165 H 41.149053 V 49.178135 L 212.77071,178.6471 201.73072,187.67982 51.185407,69.250845 Z"
             id="path8462" /><path
             style="fill:#ff0000;fill-opacity:1;stroke:#ffffff;stroke-width:20;stroke-linejoin:bevel;stroke-dasharray:none;stroke-opacity:0"
             d="M 295.06881,180.65438 470.70502,44.159958 V 184.66892 H 457.65775 L 461.6723,66.239937 305.10517,185.67255 Z"
             id="path8464" /><path
             style="fill:#000000;fill-opacity:1;stroke:#ffffff;stroke-width:20;stroke-linejoin:bevel;stroke-dasharray:none;stroke-opacity:0"
             d="m 197.71618,214.77798 47.17086,-1.00364 2.00727,36.13088 -11.03999,-2.00727 -11.03998,-21.07634 -26.09453,-2.00728 z"
             id="path8522"
             sodipodi:nodetypes="ccccccc" /><path
             style="fill:#000000;fill-opacity:1;stroke:#ffffff;stroke-width:20;stroke-linejoin:bevel;stroke-dasharray:none;stroke-opacity:0"
             d="m 274.99611,216.78525 -1.00364,32.11633 13.04726,-1.00363 4.01454,-21.07635 27.09816,1e-5 -2.00729,-16.05817 z"
             id="path8524"
             sodipodi:nodetypes="ccccccc" /><path
             style="fill:#808080;fill-opacity:1;stroke:#ffffff;stroke-width:20;stroke-linejoin:bevel;stroke-dasharray:none;stroke-opacity:0"
             d="m 40.145417,301.09062 40.145416,53.19268 3.010905,-4.01453 z"
             id="path8683" /><path
             style="fill:#808080;fill-opacity:1;stroke:#ffffff;stroke-width:20;stroke-linejoin:bevel;stroke-dasharray:none;stroke-opacity:0"
             d="m 141.5126,309.11972 39.14178,47.17086 6.02181,-8.02909 z"
             id="path8685" /><path
             style="fill:#808080;fill-opacity:1;stroke:#ffffff;stroke-width:20;stroke-linejoin:bevel;stroke-dasharray:none;stroke-opacity:0"
             d="m 243.88341,309.11972 33.11996,41.14905 5.01817,-6.02183 z"
             id="path8687" /><path
             style="fill:#808080;fill-opacity:1;stroke:#ffffff;stroke-width:20;stroke-linejoin:bevel;stroke-dasharray:none;stroke-opacity:0"
             d="m 342.23968,312.13062 35.12724,38.13815 6.02181,-7.02545 z"
             id="path8689" /><path
             style="fill:#808080;fill-opacity:1;stroke:#ffffff;stroke-width:20;stroke-linejoin:bevel;stroke-dasharray:none;stroke-opacity:0"
             d="m 425.54141,311.12698 25.09089,37.13451 7.02545,-10.03636 z"
             id="path8691" /><path
             style="fill:#808080;fill-opacity:1;stroke:#ffffff;stroke-width:20;stroke-linejoin:bevel;stroke-dasharray:none;stroke-opacity:0"
             d="m 42.152689,481.74499 42.152685,-47.17087 4.014542,12.04365 z"
             id="path8693" /><path
             style="fill:#808080;fill-opacity:1;stroke:#ffffff;stroke-width:20;stroke-linejoin:bevel;stroke-dasharray:none;stroke-opacity:0"
             d="m 148.53804,466.69047 34.12361,-31.1127 8.02908,12.04362 z"
             id="path8695" /><path
             style="fill:#808080;fill-opacity:1;stroke:#ffffff;stroke-width:20;stroke-linejoin:bevel;stroke-dasharray:none;stroke-opacity:0"
             d="m 273.99247,467.69411 35.12725,-37.13451 5.01816,10.03636 z"
             id="path8697" /><path
             style="fill:#808080;fill-opacity:1;stroke:#ffffff;stroke-width:20;stroke-linejoin:bevel;stroke-dasharray:none;stroke-opacity:0"
             d="m 384.39238,462.67592 37.13451,-59.21449 c 0,0 16.05814,13.04726 7.02542,16.05817 -9.03271,3.0109 -44.15993,43.15632 -44.15993,43.15632 z"
             id="path8699" /></g><text
           xml:space="preserve"
           style="font-size:67.7913px;font-family:Aharoni;-inkscape-font-specification:Aharoni;fill:#808080;stroke:#ffffff;stroke-width:53.3789;stroke-linejoin:bevel;stroke-opacity:0"
           x="445.45547"
           y="-265.66373"
           id="text14058"
           transform="scale(0.89846622,-1.1130079)"><tspan
             sodipodi:role="line"
             id="tspan14056"
             style="stroke-width:53.3789"
             x="445.45547"
             y="-265.66373">TurboSpeedGE</tspan></text></g></g></g></svg>
